<?xml version="1.0" encoding="utf-8"?>
<!-- Generator: Adobe Illustrator 22.0.0, SVG Export Plug-In . SVG Version: 6.00 Build 0)  -->
<svg version="1.1" id="Layer_1" xmlns="http://www.w3.org/2000/svg" xmlns:xlink="http://www.w3.org/1999/xlink" x="0px" y="0px"
	 viewBox="0 0 710.1 240" style="enable-background:new 0 0 710.1 240;" xml:space="preserve">
<style type="text/css">
	.st0{fill:#FFFFFF;}
</style>
<path class="st0" d="M192.6,51c-23.9,0-44.9,12.3-57.1,30.9C122.9,62.7,101.7,51,78.4,51C40.7,51,10,81.7,10,119.3
	s30.6,68.3,68.3,68.3c14.3,0,27.8-4.5,39-12.3v1.8c0,0.2,0,1.2,0,1.5c0,6.9,5.6,12.4,12.4,12.4c6.9,0,12.4-5.6,12.4-12.4
	c0-0.3,0-10.2,0-10.2v-14.9c0,0,0-21.9,0-22c-0.1-6.3-4.6-13.7-17.9-13.7c-13.3,0-38.3,0-38.3,0c-7.7,0-13.9,6.2-13.9,13.9
	c0,7.7,6.2,13.9,13.9,13.9h22.9c-7.5,8.7-18.6,13.9-30.5,13.9c-22.3,0-40.4-18.1-40.4-40.4c0-22.3,18.1-40.4,40.4-40.4
	c15.4,0,29.2,8.5,36.1,22.3c2.2,4.3,3.7,10.9,10.2,10.9c0.4,0,0.8,0,1.3,0c14.6,0,21.9,7.9,21.9,22.3c0,9,0,25.9,0,36.6
	c12,10.4,27.6,16.8,44.7,16.8c37.7,0,68.3-30.6,68.3-68.3C260.9,81.7,230.3,51,192.6,51z M192.6,159.1c-22,0-39.7-17.8-39.7-39.7
	c0-22,17.8-39.7,39.7-39.7s39.7,17.8,39.7,39.7C232.4,141.3,214.6,159.1,192.6,159.1z"/>
<g>
	<g>
		<g>
			<path class="st0" d="M379.2,194.8C379.1,194.8,379.1,194.8,379.2,194.8C379.2,194.8,379.2,194.8,379.2,194.8
				C379.2,194.8,379.2,194.8,379.2,194.8z"/>
			<path class="st0" d="M374.2,193.4c-7.7,0-13.9,6.2-13.9,13.8c0,7.6,6.2,13.8,13.9,13.8c7.7,0,13.9-6.2,13.9-13.8
				C388.1,199.6,381.9,193.4,374.2,193.4z M385.7,200.2C385.7,200.2,385.7,200.2,385.7,200.2L385.7,200.2
				C385.7,200.2,385.7,200.2,385.7,200.2C385.7,200.2,385.7,200.2,385.7,200.2C385.7,200.2,385.7,200.2,385.7,200.2
				c1.1,1.8,1.8,3.8,1.9,6v0c0,0,0,0.1,0,0.1c0,0,0-0.1,0-0.1c0,0,0,0.1,0,0.1c0,0,0,0.1,0,0.1s0-0.1,0-0.2c0-0.1,0-0.1,0-0.2
				c0-0.1,0-0.1,0-0.2c0-0.1,0-0.2,0-0.2c0,0,0,0,0,0.1c0,0,0,0.1,0,0.1c0,0-0.1-0.2-0.1-0.1c0,0,0,0.1,0,0.2c0,0.1,0,0.2,0,0.2
				s-0.1-0.1-0.1-0.2c0,0-0.1-0.4-0.1-0.4c0,0,0-0.1,0-0.2c0,0-0.1-0.3-0.2-0.4c0-0.1-0.1-0.3-0.1-0.3c0,0,0,0.1,0,0.1s0,0.1,0,0.1
				c0,0,0,0.1,0.1,0.2c0.1,0.1,0.2,0.3,0.2,0.4c0,0,0,0.2,0,0.2s-0.1-0.2-0.1-0.1c0,0,0,0.1,0,0.2c0,0-0.1,0.2-0.1,0.2c0,0,0,0,0,0
				c0,0,0,0.1,0,0.1c0,0-0.1-0.1-0.1-0.2c0,0,0.1,0,0.1-0.1c0,0,0,0.1,0,0.1c0-0.1,0-0.1,0-0.1c0,0,0-0.1,0-0.1
				c0-0.1-0.2-0.4-0.2-0.4c0-0.1-0.1-0.4-0.1-0.4c0,0,0,0-0.1,0.1c0,0-0.1,0.2-0.1,0.1c0,0-0.1-0.2-0.1-0.1c0,0.1,0,0.1,0,0.1
				c0,0,0,0.1,0,0.1c0,0,0,0-0.1,0.1c0,0.1-0.1,0.1-0.1,0.1c0,0,0,0.1,0,0.2c0,0.1,0,0,0,0.1c0,0.1-0.1,0.2-0.1,0.2
				c-0.1,0-0.2,0-0.2,0c0,0-0.1,0.1-0.1,0.1c0,0-0.1-0.1-0.1-0.1c0,0-0.1-0.1-0.1-0.1c0,0-0.1-0.1-0.1-0.1c0,0-0.1-0.3-0.1-0.4
				c0-0.1,0.1-0.2,0-0.3c0-0.1,0-0.2,0-0.2s0-0.1,0-0.1c0,0,0.1-0.1,0.1-0.1c0,0,0.1,0,0.1,0c0,0,0.1,0,0.1,0c0,0,0.1,0.1,0.1,0.1
				c0,0,0.2,0,0.2,0c0,0,0-0.2,0-0.3c0-0.1,0-0.2-0.1-0.2c0,0-0.3-0.4-0.3-0.4s0,0,0.1,0c0,0,0.2,0.2,0.2,0.1c0,0,0-0.2,0-0.2
				c0,0,0.1,0,0.1,0c0,0,0.1,0,0.1-0.1c0,0,0-0.2,0-0.2c0,0,0-0.1,0-0.1c0,0,0-0.3,0-0.3s0-0.2,0-0.2c0,0,0,0.2,0,0.2c0,0,0,0,0-0.1
				c0,0,0-0.2,0-0.2c0-0.1-0.1-0.3,0-0.3c0,0,0-0.1,0.1-0.1c0,0.1,0.1,0.3,0.1,0.3c0,0,0,0,0-0.1c0,0,0-0.1-0.1-0.2
				c0,0-0.1-0.3-0.1-0.3c0,0,0,0,0,0c0,0,0,0.1,0,0.1c0,0-0.1,0-0.1,0c0,0-0.2-0.4-0.2-0.4c0-0.1,0-0.1,0-0.1c0,0,0-0.1-0.1-0.1
				c0,0,0-0.1,0-0.1c0,0,0-0.1,0-0.2c0,0,0-0.2,0-0.2c0,0,0-0.1,0-0.1c0,0,0,0,0,0c0-0.1,0,0,0-0.1c0-0.1-0.1-0.2-0.1-0.2
				c0,0,0-0.1,0-0.1c0,0,0-0.1,0-0.1c0,0,0-0.1,0-0.1c0,0,0-0.1,0-0.1c0,0,0,0,0,0c0,0,0,0,0,0c0,0,0,0,0,0c0,0,0,0,0,0
				c0,0,0-0.1,0-0.1C385.7,200.4,385.7,200.3,385.7,200.2C385.7,200.3,385.7,200.3,385.7,200.2C385.7,200.2,385.6,200.2,385.7,200.2
				C385.7,200.2,385.7,200.2,385.7,200.2C385.7,200.2,385.7,200.2,385.7,200.2z M386.8,205.3c0-0.1,0-0.1,0-0.2c0,0,0,0,0,0
				C386.8,205.2,386.8,205.3,386.8,205.3c0,0.2,0.1,0.2,0.1,0.2c0,0,0,0.2,0,0.3c0,0.1-0.1,0-0.1,0s0-0.1,0-0.1c0-0.1,0-0.1,0-0.1
				c0-0.1,0,0,0-0.1C386.8,205.4,386.8,205.3,386.8,205.3z M386.5,205.6C386.5,205.6,386.5,205.7,386.5,205.6
				C386.5,205.6,386.4,205.7,386.5,205.6c-0.1,0.1-0.1,0.1-0.1,0.1c0,0,0-0.1,0-0.1C386.4,205.7,386.4,205.6,386.5,205.6
				C386.4,205.6,386.4,205.6,386.5,205.6c-0.1,0-0.1-0.1,0-0.1C386.5,205.4,386.5,205.5,386.5,205.6
				C386.6,205.6,386.6,205.6,386.5,205.6z M385.3,201.9C385.4,202,385.4,201.9,385.3,201.9c0.1,0,0.1,0,0.1,0c0,0,0,0,0.1,0.1
				c0,0,0,0.1,0,0.1c0,0,0.1,0.1,0.2,0.2c0.1,0.1,0,0.2-0.1,0.2c0,0,0.3,0.5,0.3,0.6c0.1,0.1,0.1,0.3,0.1,0.3c0,0.1,0,0.1,0,0.1
				c0,0,0,0.1,0,0.2c0,0.1-0.2,0-0.2,0s-0.2,0-0.3,0c-0.1,0,0.1-0.1,0.1-0.2c0-0.1,0-0.1-0.1-0.1c0,0,0-0.1,0-0.1c0,0,0,0,0-0.2
				c0,0,0,0,0-0.1c0,0,0.1-0.1,0-0.2c0-0.1-0.1,0-0.1,0c0,0,0-0.1,0-0.1c0-0.1,0,0-0.1-0.1c0,0-0.1,0-0.1-0.1c0,0,0,0,0-0.1
				c0-0.1,0,0,0-0.1c0-0.1-0.1,0-0.1,0c0,0,0,0,0-0.1c0,0,0,0-0.1-0.1c0,0,0.1-0.1,0.1-0.1C385.4,202.1,385.3,201.9,385.3,201.9
				C385.3,201.9,385.3,201.9,385.3,201.9z M385.4,202.7c0,0,0.1-0.1,0.1,0c0,0,0.1,0.1,0.1,0.1c0,0.1,0,0.2,0,0.2s0,0.1,0,0.2
				c0,0.1,0,0.1,0,0.1c0,0-0.2,0.2-0.2,0.1c0-0.1-0.2-0.2-0.1-0.2c0.1,0,0.1,0,0.1-0.1c0-0.1-0.1-0.2-0.1-0.2
				C385.2,202.7,385.4,202.7,385.4,202.7z M374.4,193.9c0,0,0.1,0,0.2,0c0,0,0.1,0,0.1,0c0,0,0,0,0.1,0c0.1,0,0,0,0.1,0
				c0,0,0.1,0,0.2,0c0,0-0.1,0-0.1,0c0,0,0,0,0.1,0c0,0,0,0,0,0c0,0,0.1,0,0.1,0c0,0,0.1,0,0.1,0c0,0,0.1,0,0.2,0c0.1,0,0.1,0,0.2,0
				c0.1,0,0.1,0,0,0c0,0-0.1,0-0.1,0c0,0-0.1,0-0.1,0c0,0,0.1,0,0.1,0s0.1,0,0.1,0c0,0,0,0,0,0s0.1,0,0.1,0c0,0-0.1,0-0.1,0
				c-0.1,0,0.1,0,0.1,0s0.1,0,0.1,0c0,0,0.1,0,0.1,0c0,0,0.1,0,0.2,0c0.1,0,0,0,0,0c0,0-0.2,0-0.2,0c0,0-0.1,0-0.1,0
				c0.1,0,0.2,0,0.2,0c0,0,0.1,0,0.2,0c0.1,0,0.1,0,0.1,0c0,0-0.1,0-0.1,0v0c0.1,0,0.1,0,0.2,0l0,0c0,0,0,0,0.1,0v0
				c0.1,0,0.3,0,0.4,0.1h0c0,0,0,0,0,0c-0.1,0-0.1,0,0,0c0,0,0.1,0,0.2,0c0,0,0,0,0.1,0l0,0c0.1,0,0.2,0,0.3,0.1c0,0,0,0,0,0
				c0,0,0.1,0,0.2,0c0,0,0.1,0,0.1,0c0.1,0-0.1,0-0.1,0c0,0-0.2,0-0.2,0c0,0,0,0-0.1,0c0,0-0.2,0-0.2,0c-0.1,0-0.1,0-0.2,0
				c0.1,0,0.1,0,0.2,0.1c0,0-0.2,0-0.2,0c0,0,0.5,0,0.6,0.1c0.1,0-0.3,0-0.3,0c0,0-0.1,0-0.2,0c0,0,0,0-0.1,0c-0.1,0-0.1,0-0.2,0
				c0,0,0.1,0.1,0.1,0.1c0,0-0.2-0.1-0.3-0.1c-0.1,0,0.1,0,0.1,0.1c0,0,0,0-0.1,0.1c-0.1,0-0.1,0-0.2,0c-0.1,0-0.1,0-0.1,0
				c0,0,0,0,0,0c0,0-0.2,0,0,0.1c0.1,0.1,0.1,0,0.1,0c0,0,0.1,0,0.2,0.1c0.1,0,0,0,0,0.1c0,0-0.1,0-0.1,0c-0.1,0,0.1,0,0.1,0.1
				c0,0.1-0.1,0-0.2,0c-0.1,0,0.1,0.1,0,0.1c-0.1,0-0.2,0-0.2,0c-0.1,0,0,0,0.1,0.1c0.1,0,0,0.1-0.1,0.1c-0.1,0-0.1,0-0.2,0
				c-0.1,0-0.1,0-0.1,0c0,0-0.1,0-0.1,0.1c-0.1,0,0.1,0,0.1,0c0,0,0.1,0,0.2,0c0.1,0,0.2,0,0.3,0.1c0.1,0,0,0.1-0.1,0.1
				c0,0,0,0-0.1,0.1c-0.1,0.1-0.1,0-0.3-0.1c-0.1,0-0.2,0-0.2,0c0,0,0,0-0.1,0c0,0-0.1,0-0.1-0.1c-0.1,0-0.1,0-0.1,0
				c0,0-0.1,0-0.2,0c-0.1-0.1-0.1,0.1-0.2,0.1c-0.1,0-0.2,0-0.2-0.1c-0.1-0.1-0.1,0-0.1,0s-0.1,0-0.2,0.1c-0.1,0,0.2,0,0.1,0
				c0,0,0,0,0.1,0.1c0.1,0.1,0.2,0.1,0.2,0.1s0,0,0.1-0.1c0.1,0,0.1,0.1,0.1,0.1s0.1,0,0.3,0c0.1,0,0.1-0.1,0.1-0.1c0,0,0,0,0.1,0
				c0,0.1,0.1,0,0.2,0c0.1,0,0.2,0.1,0.3,0.2c0.1,0,0,0-0.1,0.1c-0.1,0,0.1,0.1,0.1,0.1c0.1,0-0.1,0.1-0.2,0.1c-0.1,0-0.3,0-0.3-0.1
				c-0.1,0-0.2,0.1-0.2,0c-0.1,0,0,0.1-0.3,0c-0.2,0-0.2,0-0.3-0.1c-0.1,0-0.2,0.1-0.2,0c0,0-0.1,0-0.2-0.1c-0.1,0-0.1-0.2-0.1-0.2
				c0,0,0.1-0.1,0.1-0.1c0,0-0.1,0-0.2-0.2c0-0.1-0.1,0-0.1,0c-0.1,0-0.1,0.1-0.1,0.1s0.1,0.1,0,0.1c-0.1,0.1,0.2,0.1,0.2,0.2
				c0,0.1,0,0.1-0.1,0.1c-0.1,0-0.2,0.1-0.3,0c-0.1-0.1-0.1-0.1-0.1-0.1c0-0.1,0.1-0.1,0.1-0.1c0,0,0.1-0.1,0.1-0.2
				c0-0.1,0-0.1,0-0.1c0,0-0.1-0.1-0.1-0.1c0,0-0.1-0.1-0.1-0.1c0,0-0.1,0-0.1-0.1c0,0,0.1,0,0.1,0c0,0,0,0,0,0c0,0,0.1,0,0.1,0
				s0.1,0,0.1,0c0,0,0.1,0,0.2,0.1c0.1,0.1,0,0.1,0,0.1s0.2,0,0.3,0c0,0,0.1,0,0.1-0.1c0,0,0.2-0.1,0.2-0.1c0.1,0,0.1,0,0.2,0
				c0,0,0,0-0.1-0.1c-0.1,0-0.1,0-0.2-0.1c0-0.1,0.1,0,0.2,0c0.1,0,0,0,0,0.1c0,0,0.1,0.1,0.2,0.1c0.1,0,0.2,0,0.2,0
				c0,0,0.1-0.1,0.1-0.1c0,0-0.2,0-0.2,0c-0.1,0-0.1-0.1-0.1-0.1c0,0,0.1-0.1,0.1-0.1c0,0-0.1,0-0.1,0c0,0-0.2,0-0.2,0
				c0,0,0.2-0.1,0.2-0.1c0.1,0,0.2,0,0.2,0c0,0,0.1,0,0.2,0c0.1,0,0.1,0,0.1-0.1c0,0-0.1,0-0.2-0.1c-0.1-0.1-0.1-0.1-0.1-0.1
				c0,0-0.1,0-0.2,0c-0.1,0-0.1-0.1-0.1-0.1c0,0,0,0,0-0.1c0,0,0,0,0.1,0c0.1,0,0.2,0.1,0.2,0.2c0,0,0.2,0,0.2,0.1c0.1,0,0,0,0.1,0
				c0.1,0-0.1,0-0.1,0c0,0,0,0-0.1-0.1c0,0-0.1-0.1-0.2-0.1c0,0,0.2,0,0.2,0c0,0,0.1,0,0.2,0c0.1,0-0.1,0,0-0.1c0,0,0.3,0,0.3,0
				c0.1,0-0.2,0-0.3,0c-0.1,0,0,0,0.1,0c0.1,0,0,0,0,0c0,0-0.1,0-0.1,0.1c0,0-0.2,0.1-0.2,0.1c-0.1,0-0.1,0-0.1,0c0,0-0.2,0-0.3,0
				c-0.1,0-0.1,0-0.2,0c-0.1,0,0,0-0.2,0c-0.1,0-0.1,0-0.1-0.1c0,0,0.2,0,0.2,0c0,0,0.1,0,0.1,0c0,0,0.1,0,0.2,0c0.1,0,0.1,0,0.1,0
				c0,0-0.3,0-0.2,0c0,0,0.1,0,0.1,0c0,0-0.1,0-0.1,0c0,0-0.2,0-0.2,0c-0.1,0-0.2,0-0.2,0c-0.1,0,0,0,0,0c0,0,0,0,0.1,0
				c0,0,0.1,0,0.1,0c0,0-0.1,0-0.1,0c0,0,0,0-0.1,0C374.5,194,374.4,194,374.4,193.9C374.4,194,374.3,194,374.4,193.9z M372.9,197.7
				c0,0-0.1,0.1-0.1,0.1c0,0-0.3,0-0.4-0.1c-0.1-0.1-0.2,0-0.3,0.1c-0.1,0.1-0.3,0.1-0.4,0.2c-0.1,0-0.4,0-0.4,0s0-0.1,0-0.2
				c0-0.1-0.3,0-0.4,0c-0.1,0-0.1-0.1-0.1-0.2c0-0.1,0.3-0.1,0.5-0.1c0.2,0,0.3,0,0.4,0c0.1-0.1,0-0.1-0.2-0.1
				c-0.2,0-0.5,0.1-0.5,0.1c-0.1,0-0.2-0.1-0.2-0.2c0-0.1,0.2,0,0.2,0s0.2-0.1,0.2-0.2c0-0.1-0.1,0.1-0.2,0.1
				c-0.1,0-0.3-0.1-0.3-0.1c0-0.1,0.2-0.1,0.2-0.1s0-0.1,0-0.1c0-0.1,0.4-0.2,0.5-0.2c0.1,0,0,0.1,0,0.2c0,0.1,0.3-0.2,0.3-0.1
				c0,0,0,0.2,0.1,0.2c0.1,0.1,0.2-0.2,0.3-0.2c0.1,0,0,0.2,0,0.3c0,0.1,0.2,0,0.3-0.1c0.1,0,0-0.1-0.1-0.2c-0.1-0.1,0-0.1,0-0.2
				c0-0.1,0.3,0,0.3,0s0,0.1,0,0.2c0,0,0.1,0.3,0.1,0.4c0,0.1,0.4,0.3,0.5,0.4c0,0.1-0.3,0-0.3,0.1
				C372.7,197.5,372.9,197.6,372.9,197.7z M372.4,196.3c0,0,0.1,0,0.1,0c0.1,0,0.1,0,0.2,0c0.1,0.1,0,0.1,0,0.1
				C372.6,196.5,372.4,196.3,372.4,196.3z M372.9,196.5C373,196.5,373,196.5,372.9,196.5c0,0,0.2,0,0.2,0.1c0,0,0.1-0.1,0.1-0.1
				c0,0-0.1-0.1-0.1-0.2c0,0,0.1,0,0.1-0.1c0.1-0.1,0.1,0,0.2,0.1c0.1,0.1,0.1-0.1,0.2-0.2c0.1,0,0.1,0.1,0.1,0.1
				c0,0-0.1,0.2-0.1,0.2c-0.1,0,0.1,0.1,0.2,0.2c0.1,0.1-0.1,0.3-0.1,0.3c0,0-0.2,0.1-0.2,0.1c-0.1,0,0-0.1-0.1-0.2
				C373.3,196.8,373,196.6,372.9,196.5z M373.9,195C373.9,195,373.9,194.9,373.9,195c0.1-0.1,0.1,0,0.2,0c0,0,0.1,0,0.2,0.1
				c0,0.1-0.1,0-0.1,0C374.1,195,373.9,195,373.9,195z M374.5,195.1C374.5,195.1,374.5,195,374.5,195.1c0.1-0.1,0.1-0.1,0.1-0.1
				c0,0,0.1,0,0.1,0c0,0,0.1,0.1,0,0.1C374.6,195.1,374.6,195.1,374.5,195.1C374.5,195.1,374.5,195.1,374.5,195.1z M373.9,194.3
				C373.9,194.2,374,194.3,373.9,194.3c0.1,0,0.1,0,0.2,0c0.1,0,0.1,0,0.1,0S374,194.2,373.9,194.3c0.1-0.1,0.1-0.1,0.1-0.1
				c0,0,0.1,0,0.2,0c0.1,0-0.1,0-0.1,0c0,0,0,0,0.1,0c0.1,0,0,0,0,0c0,0-0.1,0-0.1,0c0,0,0.1,0,0.1,0c0,0,0.1,0,0.1,0
				c0,0,0.1,0.1,0.1,0.1c0,0,0.2,0,0.2,0.1c0.1,0,0,0,0,0.1c0,0,0.2,0.1,0.2,0.1c0.1,0,0,0,0,0.1c0,0,0.1,0,0.1,0
				c0.1,0,0.1,0.1,0.1,0.1c0,0-0.1,0-0.2,0c0,0-0.1,0-0.2,0c-0.1,0,0,0.1,0,0.1c0,0,0,0.1-0.1,0.1c0,0,0-0.1-0.1-0.1
				c-0.1,0-0.1,0.1-0.1,0.1c0,0-0.2,0.1-0.3,0c-0.1-0.1,0,0,0.1-0.1c0.1-0.1-0.1,0-0.2-0.1c0,0-0.1,0-0.1,0c0,0,0.2,0,0.2,0
				c0,0,0.2,0,0.2,0c0,0-0.1,0-0.1,0c0,0-0.1,0-0.1,0c0,0-0.1,0-0.1,0c0,0-0.2,0-0.1,0c0,0,0.3,0,0.2,0
				C374.1,194.4,374.1,194.4,373.9,194.3C373.9,194.3,373.9,194.3,373.9,194.3C373.9,194.3,373.9,194.3,373.9,194.3z M373.9,194.6
				c0.2,0,0.1,0.1,0.2,0.1c0.1,0.1-0.1,0.1-0.1,0.1c0,0-0.1,0.1-0.2,0c-0.1-0.1,0-0.1,0-0.1c0,0-0.1-0.1-0.1-0.1
				C373.7,194.6,373.7,194.6,373.9,194.6z M373.7,195.4c0,0.1-0.1,0.2-0.1,0.3c0,0-0.1,0.1-0.1,0.1c-0.1,0-0.2,0-0.2,0
				c-0.1,0,0-0.1,0.1-0.1c0,0,0-0.1-0.1-0.1c0,0-0.2,0.1-0.2,0.1c0,0,0,0,0-0.1c0-0.1-0.1,0-0.2,0c0,0-0.1-0.1,0-0.1
				c0.1-0.1,0.1,0.1,0.1,0.1c0,0,0.2,0,0.3,0c0,0-0.1-0.1-0.1-0.2c0-0.1,0.1,0,0.2,0.1c0.1,0.1,0.1,0,0.2,0
				C373.6,195.2,373.7,195.4,373.7,195.4z M373.6,194.3C373.6,194.3,373.6,194.3,373.6,194.3c0.1,0,0.1,0.1,0,0.1
				C373.6,194.4,373.4,194.3,373.6,194.3C373.5,194.3,373.5,194.3,373.6,194.3z M372.7,194.5C372.7,194.5,372.7,194.5,372.7,194.5
				c0.1,0,0.2,0,0.2,0c0,0,0,0,0.2,0.1c0.1,0,0.3,0.1,0.4,0.1c0,0.1,0.1,0.1,0.1,0.2c0,0.1-0.1,0-0.2,0c-0.1,0-0.1,0-0.1-0.1
				c0,0-0.1,0-0.1-0.1c0,0-0.1,0-0.2,0c-0.1,0-0.2,0-0.2,0c0,0,0.1,0,0.2-0.1c0.1-0.1,0,0-0.1-0.1
				C372.8,194.6,372.6,194.6,372.7,194.5z M372.6,194.9C372.6,194.9,372.7,195,372.6,194.9c0.1,0.1,0.2,0.1,0.2,0.2
				c0,0.1-0.1,0.1-0.2,0C372.6,195.1,372.6,194.9,372.6,194.9z M371.9,194.8c0.1,0,0.1-0.1,0.1-0.1c0.1,0,0.1,0.1,0.1,0.1
				C372.1,194.9,371.9,194.9,371.9,194.8c0,0.1-0.2,0.1-0.2,0.1C371.7,194.9,371.9,194.8,371.9,194.8z M371.7,195c0.1,0,0,0,0.2-0.1
				c0.2-0.1,0.2,0,0.3,0c0,0-0.1,0.1-0.1,0.1s-0.2,0.2-0.2,0.2C371.8,195.1,371.6,195.1,371.7,195c-0.1,0-0.2,0-0.3,0
				C371.4,195,371.7,195,371.7,195z M371.7,195.5c0.1,0,0.1,0.1,0.1,0.1c0,0,0.2,0.1,0.2,0.1c0.1,0,0.1-0.1,0.1-0.1c0,0-0.1,0-0.1,0
				c0,0,0,0,0.1-0.1c0,0-0.1-0.1-0.1-0.1s0-0.1,0.1-0.1c0.1,0,0.1-0.1,0.2,0c0.1,0,0,0.1,0,0.1c0,0,0.1,0.1,0.1,0.1c0,0,0,0,0.1,0
				c0.1-0.1,0.1,0,0.1,0.1c0,0.1-0.1,0.1-0.1,0.1s-0.1,0.1-0.1,0.1c0,0.1-0.1,0-0.1,0s-0.1,0-0.2,0c-0.1,0,0,0-0.1-0.1
				c-0.1,0-0.2,0.1-0.3,0.2c-0.1,0.1-0.2,0.1-0.3,0.1c-0.1,0-0.2,0-0.2,0c0,0,0.2-0.1,0.2-0.1c0-0.1,0.2-0.1,0.3-0.1
				c0,0-0.1,0-0.1,0c-0.1,0-0.2,0-0.2,0c0,0-0.2,0.1-0.2,0.1c0,0-0.3,0-0.3,0c0,0,0.1-0.1,0.1-0.1c0.1,0,0.1,0,0.2-0.1
				c0.1,0-0.1,0-0.1-0.1c-0.1-0.1,0.1,0,0.1-0.1c0,0,0.1,0,0.2-0.1C371.5,195.4,371.6,195.5,371.7,195.5z M370.4,195.6
				c0,0,0.5-0.3,0.6-0.3c0,0,0.2-0.1,0.3-0.1c0.1,0,0.1-0.1,0.1,0c0,0.1,0,0.1,0,0.1c0,0-0.1,0.1-0.1,0.1c0,0,0,0.1-0.1,0.1
				c-0.1,0.1-0.1,0.1-0.2,0.1c0,0,0-0.2-0.1-0.1c-0.1,0.1-0.1,0.1-0.2,0.2c-0.1,0.1-0.1,0.2-0.2,0.2c0,0,0-0.1,0-0.1s-0.1,0-0.1,0
				c-0.1,0-0.1,0.1-0.2,0C370.3,195.7,370.4,195.6,370.4,195.6z M371,195.7c0,0.1-0.1,0.1-0.1,0.1c0,0-0.1,0-0.1,0s0-0.1,0-0.1
				C370.8,195.7,370.9,195.6,371,195.7C371,195.6,371,195.6,371,195.7z M369.9,196.7c0.1-0.1,0-0.1,0-0.2c0,0,0.1-0.1,0.2-0.2
				c0.1-0.1-0.1,0-0.1-0.1c0-0.1,0.2-0.1,0.3-0.1c0,0,0,0,0.2-0.1c0.1,0,0.2,0.1,0.2,0.1s0.1,0,0.2-0.1c0.1-0.1,0,0,0.2,0
				c0.2,0.1,0.2,0.1,0.2,0.2c0,0.1-0.5,0.3-0.5,0.3c0,0-0.1,0.1-0.2,0.1c0,0-0.1,0.2-0.1,0.2c0,0-0.1,0-0.1,0s-0.2,0.2-0.2,0.2
				c0,0-0.1-0.1,0-0.1c0,0-0.1-0.1-0.2-0.1c-0.1-0.1-0.1-0.1-0.1-0.2C369.7,196.9,369.9,196.8,369.9,196.7z M382.6,212.7
				c0,0.1,0,0.1-0.1,0.1c0,0-0.1,0.1-0.1,0.1c0,0-0.1,0.1-0.1,0.1c0,0-0.1,0.1-0.1,0.2c0,0.1-0.1,0.1-0.1,0.1c0,0-0.1,0.6-0.1,0.7
				c0,0-0.1,0.2-0.1,0.2c0,0-0.1,0.1-0.1,0.1c-0.1,0.1-0.1,0.2-0.1,0.2c-0.1,0.1,0,0-0.1,0.1c-0.1,0.1-0.1,0-0.1,0
				c-0.1,0-0.2,0.1-0.3,0.1c-0.1,0-0.1,0-0.2,0.1c-0.1,0-0.2,0.2-0.2,0.2c-0.1,0-0.1,0.3-0.1,0.3c0,0.1,0,0.1,0,0.1
				c0,0-0.1,0.1-0.2,0.1c0,0-0.1,0.2-0.1,0.2c-0.1,0.1-0.1,0.1-0.2,0.2c-0.1,0.1-0.1,0.2-0.2,0.2c-0.1,0.1-0.2,0.1-0.2,0.2
				c0,0-0.2,0.1-0.3,0.1c-0.1,0,0.1,0.1,0.1,0.1s-0.2,0.2-0.2,0.2c0,0.1-0.5,0.1-0.6,0.2c-0.1,0-0.1,0.2-0.1,0.2
				c0,0.1-0.3,0.1-0.4,0.1c-0.1,0,0.2,0,0.2,0.1c0,0.1-0.1,0.1-0.2,0.1c-0.1,0.1,0,0.2-0.1,0.2c0,0-0.1,0.1-0.2,0.1
				c-0.1,0-0.1,0-0.1,0.1c0,0,0.1,0.1,0.1,0.1c0,0,0,0.1,0,0.1c0,0-0.1,0.1-0.2,0.1c-0.1,0,0,0.1-0.1,0.1c0,0.1-0.2,0.1-0.2,0.2
				c0,0,0.1,0.1,0.1,0.1c0,0,0,0.1,0,0.1c0,0,0,0,0,0.1c0,0,0.1,0.1,0.2,0.1c0,0,0.1,0,0.2,0c0.1,0,0.1,0,0.1,0c0,0,0,0,0,0
				c0,0-0.1,0-0.1,0c0,0,0,0-0.1,0c-0.1,0-0.2,0.1-0.2,0.1c0,0,0,0-0.1,0.1c0,0-0.1,0-0.1,0c-0.1,0-0.1,0-0.2,0c-0.1,0-0.1,0-0.2,0
				c0,0,0,0,0,0s0,0,0,0c0,0,0,0,0-0.1c-0.1,0-0.3-0.2-0.3-0.2c0,0,0,0,0,0c0,0,0-0.1,0-0.1c0,0,0,0,0-0.1c0-0.1,0.1-0.1,0.1-0.1
				c0,0,0-0.1,0-0.2c0,0,0.1,0,0.1-0.1c0-0.1,0-0.1-0.1,0c-0.1,0.1,0,0.2-0.1,0.1c-0.1-0.1,0.1-0.1,0.1-0.2c0.1-0.1,0,0,0-0.1
				c0-0.1,0,0,0.1-0.1c0,0,0,0,0-0.1c0-0.1,0.1-0.1,0.1-0.1c0.1-0.1,0.1-0.1,0.1-0.2c0-0.1,0-0.1,0-0.2c0,0,0.1-0.1,0.1-0.1
				c0,0,0-0.1,0-0.1c0,0,0,0,0.1-0.1c0,0,0,0,0-0.1c0,0,0-0.1,0.1-0.2c0.1-0.1,0.1-0.2,0.2-0.3c0,0,0-0.1,0.1-0.1c0,0,0-0.1,0-0.1
				c0,0,0-0.2,0-0.2c0,0,0.1-0.1,0.1-0.1c0,0,0-0.1,0-0.2c0,0-0.1,0-0.1-0.1c0-0.1,0.2,0,0.2,0s0.1-0.3,0.1-0.3c0,0,0-0.1,0-0.2
				c0-0.1,0.1-0.2,0.1-0.2c0,0,0,0,0-0.1c0-0.1,0-0.2,0-0.4c0-0.2-0.6-0.3-0.8-0.5c-0.2-0.2-0.2-0.2-0.3-0.6
				c-0.1-0.4-0.4-0.6-0.5-0.7c-0.1-0.1,0.2-0.4,0.2-0.4s-0.1-0.3,0-0.4c0-0.1,0.4-0.5,0.6-0.7c0.2-0.2,0-0.3,0-0.4
				c0-0.1-0.1,0-0.2-0.1c-0.1-0.1-0.1,0.1-0.3,0.1c-0.1,0.1-0.3-0.1-0.4-0.1c0,0-0.4-0.2-0.5-0.4c-0.1-0.1-0.1-0.1-0.2-0.4
				c-0.1-0.2-0.2,0-0.3-0.1c-0.1,0-0.3-0.1-0.4-0.2c-0.1-0.1-0.2-0.2-0.3-0.2c-0.1,0-0.1-0.1-0.2-0.1c-0.1,0-0.2,0.1-0.3,0.2
				c-0.1,0.1-0.4-0.1-0.5-0.2c-0.2-0.1-0.6-0.2-0.7-0.3c-0.2-0.1-0.3-0.3-0.3-0.3c0,0,0-0.1,0.1-0.2c0-0.1-0.1-0.2-0.2-0.3
				c-0.1-0.1-0.1-0.2-0.3-0.3c-0.1-0.1-0.2-0.2-0.3-0.2c0-0.1-0.2-0.4-0.4-0.5c-0.1-0.1,0-0.2-0.1-0.3c-0.1-0.1,0-0.1-0.1-0.2
				c-0.1-0.1-0.1,0-0.2,0c-0.1,0,0.1,0.2,0.1,0.3c0,0,0.4,0.5,0.4,0.5c0,0,0.1,0,0.1,0.1c0,0.1,0.1,0.2,0.2,0.3
				c0.1,0.1,0.1,0.1,0.2,0.2c0,0.1-0.1,0.1-0.1,0.1c0,0,0,0,0-0.1c0-0.1,0,0-0.1-0.1c-0.1-0.1-0.1,0-0.2-0.1
				c-0.1-0.1-0.1-0.1-0.1-0.2c0-0.1-0.1-0.2-0.1-0.3c-0.1-0.1-0.2-0.1-0.2-0.1c0-0.1,0.1-0.1,0.1-0.1s0-0.1,0-0.2
				c0-0.1-0.2-0.1-0.2-0.1c-0.1-0.1-0.1-0.2-0.1-0.3c0-0.1-0.1-0.3-0.2-0.4c-0.1-0.1-0.3-0.1-0.4-0.2c-0.1-0.1-0.3-0.4-0.4-0.6
				c-0.1-0.2-0.3-0.6-0.3-0.8c0-0.2,0.2-0.5,0.2-0.8c0-0.3-0.1-0.5-0.2-0.7c-0.1-0.2-0.4-0.2-0.4-0.4c0.1-0.2,0-0.3,0-0.3
				s-0.2-0.3-0.2-0.4c0-0.2-0.2-0.1-0.3-0.1c-0.1-0.1-0.4-0.4-0.5-0.4c-0.1-0.1-0.1-0.2-0.1-0.4c0-0.2-0.2-0.1-0.3-0.2
				c-0.1-0.1-0.2-0.1-0.4-0.2c-0.2-0.1-0.2,0-0.3,0c-0.1,0-0.2-0.1-0.2-0.1s-0.1,0-0.2-0.1c-0.1-0.1-0.1,0.1-0.1,0.1
				c0,0-0.1,0.2-0.1,0.2c0-0.1-0.1,0.1-0.1,0.1c0,0-0.1,0.1-0.3,0.2c-0.2,0.1-0.1,0.3-0.1,0.3s0,0.2-0.1,0.3c0,0-0.2,0.1-0.2,0.1
				s-0.1,0.1-0.1,0.1c0,0,0-0.1,0.1-0.1c0.1-0.1-0.1-0.1-0.1-0.1s0.1-0.1,0.2-0.2c0.1-0.1,0.1-0.3,0.2-0.3c0,0,0.1-0.1,0.1-0.2
				c0,0,0.1-0.1,0.1-0.2c0-0.1,0.1-0.1,0.1-0.1c0,0,0,0,0-0.1c0-0.1-0.3,0.2-0.3,0.2s-0.2,0.4-0.2,0.4c0,0-0.2,0.3-0.2,0.3
				c0,0.1-0.3,0.4-0.4,0.4c0,0.1-0.2,0.1-0.2,0.1c0,0,0.1,0.1,0.1,0.2c0.1,0.1-0.1,0.1-0.2,0c-0.1-0.1-0.1,0.1-0.1,0.1
				s-0.1,0.1-0.1,0.1c-0.1,0-0.1,0-0.2,0.1c-0.1,0.1-0.1,0.1-0.2,0.1c-0.1,0-0.1,0.1-0.1,0.2c-0.1,0.1-0.1,0.1-0.2,0.1
				c0,0-0.1,0.1-0.1,0.1c0,0-0.1,0-0.1-0.1c0-0.1,0.1,0,0.1-0.1c0-0.1,0.1-0.1,0.1-0.1c0,0,0.1-0.1,0.1-0.1c0,0,0.1-0.1,0.1-0.1
				c0.1,0,0,0,0-0.1c0,0,0.1,0,0.1-0.1c0,0,0.2-0.2,0.2-0.2c0.1-0.1,0.5-0.4,0.5-0.5c0-0.1,0.1-0.2,0.1-0.2s0,0,0-0.1
				c0-0.1,0-0.1,0.1-0.1c0-0.1-0.2,0.1-0.2,0.1c-0.1,0-0.1-0.1-0.1,0c0,0-0.1,0.1-0.2,0.1c-0.1-0.1,0.1-0.3,0-0.3
				c0,0-0.1,0.1-0.2,0.1c-0.1-0.1-0.1-0.1-0.1-0.1c0,0-0.1-0.1,0-0.3c0-0.2,0.1-0.1,0.1-0.2c0,0,0.1,0,0-0.1c0,0,0.1-0.1,0.1-0.2
				c0-0.1,0.1,0,0.1,0c0,0,0.1-0.2,0.1-0.2s0.1,0,0.1-0.1c0,0,0.1-0.1,0-0.1c0,0,0-0.1,0-0.1c0-0.1,0,0-0.1,0c0,0-0.1,0.1-0.1,0.1
				c0,0-0.2,0-0.2,0c0,0,0-0.1,0-0.1c0,0-0.1,0-0.1-0.1c0,0,0.1,0,0.2-0.1c0.1-0.1,0.3-0.3,0.3-0.3s0,0,0.1,0.1
				c0.1,0.1,0.1-0.1,0.1-0.1c0,0,0,0,0-0.1c0-0.1-0.1,0-0.1,0s-0.1-0.1,0-0.1c0,0-0.2-0.1-0.2-0.1c0,0,0-0.1,0.1-0.1
				c0,0,0.2-0.1,0.2-0.2c0,0,0.1-0.2,0.2-0.2c0-0.1,0.1-0.2,0.2-0.2c0.1,0,0.2-0.2,0.2-0.2c0,0,0,0,0.1-0.1c0,0,0,0,0,0
				c0,0,0.2-0.1,0.3-0.2c0.1,0,0.1,0,0.2,0c0,0,0,0,0,0c0,0,0,0.1,0,0.1c0,0,0,0,0,0c0,0,0-0.1,0.1-0.1c0.1-0.1,0.1,0.1,0.1,0.1
				c0,0,0.1-0.1,0.1-0.1c0,0,0.3,0.1,0.3,0.1s0.1,0,0.1-0.1c0,0,0.1,0,0.1,0c0,0,0,0,0.2-0.1c0.2-0.1,0.2,0.1,0.2,0.1s0.2,0,0.3,0
				c0.1,0,0.3,0.2,0.3,0.2s0.1,0,0.2,0c0,0,0-0.1,0-0.2c0-0.1,0.1-0.1,0.1-0.1c0.1,0,0.1,0.1,0.1,0.2c0,0,0.1,0.1,0.1,0.1
				s0.1-0.1,0.2-0.2c0.1-0.1,0.1-0.1,0.2-0.2c0.1-0.1,0.2,0,0.3,0c0.1-0.1,0.1-0.1,0.1-0.1c0,0,0-0.1,0.1-0.1c0.1,0,0.2,0.3,0.2,0.3
				c0,0,0.2-0.2,0.2-0.2c0.1-0.1,0.1,0.2,0.1,0.2c0,0,0.1,0,0.2-0.1c0.1-0.1,0.6,0.1,0.6,0.2c0.1,0,0.1,0,0.3,0
				c0.1,0,0.2,0.2,0.2,0.2s0,0.1-0.1,0.1c-0.1,0,0,0.1,0,0.1c0,0,0.5,0,0.5,0c0.1,0,0.1,0,0.1-0.1c0,0,0.1,0,0.1,0.1
				c0.1,0.1,0.2,0.2,0.2,0.3c0.1,0.1,0.1-0.1,0.2-0.1c0,0-0.1-0.1-0.1-0.2c0-0.1,0.1-0.1,0.2-0.2c0.1-0.1,0.3,0.1,0.4,0.1
				c0.1,0.1,0.6,0,0.7,0.1c0.1,0,0-0.1,0-0.1c0,0,0.1-0.1,0.2-0.1c0.1,0-0.1,0-0.1,0c0,0-0.1,0-0.2-0.1c-0.2-0.1,0.2-0.2,0.2-0.2
				s0,0,0.1-0.1c0.1-0.1,0.2,0.1,0.2,0.2c0,0.1-0.1,0.2-0.1,0.2c-0.1,0-0.1,0,0,0.1c0.1,0.1,0,0.2,0,0.2c0,0,0.1,0.1,0.2,0.1
				c0.1,0,0-0.1,0-0.1c0,0,0.1-0.1,0.2-0.2c0.1-0.1,0.1-0.3,0.1-0.4c0-0.1-0.4-0.2-0.4-0.3c0,0,0,0,0.1-0.1c0-0.1-0.1-0.1-0.1-0.2
				c0-0.1,0.1-0.1,0.1-0.1c0,0,0.1-0.1,0.1-0.2c0-0.1-0.1-0.2-0.1-0.2c0,0,0-0.1,0-0.2c0-0.1,0-0.1,0-0.1c0-0.1,0.2-0.1,0.3-0.1
				c0,0,0.1,0,0.2,0c0.1,0,0.2,0,0.3,0c0.1,0.1-0.1,0.1-0.1,0.1c0,0-0.1,0.2-0.1,0.2c0,0,0,0.1-0.1,0.1c-0.1,0,0-0.1-0.3-0.1
				c-0.2,0,0,0.1,0.1,0.1c0.1,0.1,0,0.1-0.1,0.2c-0.1,0.1,0.2,0.4,0.3,0.4c0,0,0,0.1-0.1,0.2c-0.1,0.1,0.2,0.1,0.3,0.2
				c0.1,0.1,0,0.2,0,0.3c0,0.1,0,0.1,0.1,0.1c0.1,0,0.1-0.3,0.1-0.3c0,0,0.3,0.1,0.3,0.1c0,0.1,0,0.1-0.1,0.2
				c-0.1,0.1,0.1,0.3,0.2,0.3c0,0,0-0.1,0.1-0.2c0.1-0.1,0-0.1,0.1-0.2c0-0.1,0.2-0.1,0.2-0.1c0,0-0.1,0-0.1-0.1c0,0,0-0.2,0-0.2
				s-0.6-0.3-0.6-0.3c-0.1,0,0.2,0,0.3-0.1c0.1,0-0.2-0.1-0.3-0.1c-0.1,0-0.1-0.2-0.1-0.3c0-0.1,0.2-0.3,0.2-0.4
				c0-0.1,0.5-0.1,0.5-0.1c0,0-0.2,0.3-0.3,0.3c-0.1,0,0.1,0.1,0.1,0.1c0,0-0.1,0-0.1,0.1c0,0,0.1,0.2,0.2,0.3
				c0,0.1,0.2,0.1,0.2,0.1c0,0,0-0.1,0-0.2c0,0,0-0.1-0.1-0.1c0,0,0,0,0.1-0.1c0,0-0.1-0.1-0.2-0.2c-0.1-0.1,0.4-0.3,0.5-0.3
				c0,0,0.1,0.3,0.2,0.3c0,0.1,0,0.2,0,0.3c0,0,0.1,0,0.1-0.1c0-0.1,0,0,0.1,0.1c0.1,0.1,0.1-0.1,0.1-0.1c0-0.1,0.1-0.1,0.1-0.1
				c0,0-0.2,0-0.2,0s-0.3-0.1-0.3-0.2c0,0,0.3,0,0.4,0c0.1,0,0.2,0.2,0.2,0.2c0,0,0,0.1,0,0.1c0,0,0.1,0.1,0.2,0.1
				c0.1,0.1,0,0.1,0,0.2c0,0.1,0.1,0.1,0.1,0.1c0.1,0,0.1,0.1,0.2-0.1c0-0.2,0.2,0.1,0.2,0.1c0,0.1,0,0-0.1,0.1
				c-0.1,0,0.1,0.1,0.2,0.1c0,0,0.2,0,0.3,0.1c0.1,0.1-0.1,0-0.1,0.1c-0.1,0.1,0.1,0,0.1,0s0.1-0.1,0.2,0c0.1,0.1-0.1,0.1-0.2,0.1
				c0,0.1,0,0.2,0.1,0.2c0.1,0.1,0.6,0.4,0.6,0.5c0.1,0.1,0.3,0.2,0.4,0.3c0.1,0.1,0,0.1-0.1,0.2c-0.1,0,0,0.3,0,0.4
				c0,0.1-0.2-0.1-0.2-0.1c-0.1,0-0.1-0.1-0.1-0.2c0-0.1-0.2-0.2-0.4-0.3c-0.1-0.1,0.1,0.4,0.2,0.5c0.1,0.1,0.4,0.3,0.4,0.4
				c0,0.1-0.1,0.1-0.2,0.1c0,0,0.1,0.2,0.1,0.3c0,0.1-0.6-0.5-0.7-0.5c-0.1,0,0.4,0.5,0.5,0.5c0,0-0.4-0.1-0.5-0.1
				c-0.1-0.1-0.2,0-0.2-0.1c-0.1,0-0.2-0.2-0.2-0.3c0,0-0.2,0-0.2-0.1c0-0.1-0.1-0.1-0.2-0.2c-0.1-0.1-0.5,0.2-0.6,0.1
				c-0.1,0,0.1-0.2,0.1-0.3c0-0.2,0.2-0.1,0.4-0.1c0.2,0,0,0,0-0.2c0-0.1,0.1-0.1,0.2-0.1c0.1,0,0.2,0.1,0.3,0.2
				c0.1,0.1,0.1,0,0.2-0.1c0.1-0.1-0.5-0.1-0.5-0.1s-0.1,0-0.1-0.1c0-0.1-0.6-0.8-0.8-0.9c-0.1-0.1-0.2,0-0.2,0.1
				c0,0.1-0.2,0-0.2-0.1c0-0.1-0.5,0-0.6,0.1c0,0,0.3,0.2,0.4,0.2c0.1,0.1,0,0.3,0,0.3s0.1,0.4,0,0.4c-0.1,0-0.1,0.1-0.1,0.2
				c0,0.1-0.1,0.1-0.2,0.2c-0.1,0.1,0.3,0.1,0.4,0.3c0.1,0.1,0.2,0.2,0.2,0.3c0,0-0.3-0.1-0.4-0.2c-0.1-0.1-0.1,0.2-0.2,0.3
				c-0.1,0.1-0.1,0.1-0.1,0c-0.1-0.1-0.2-0.1-0.3-0.1c0,0,0.1-0.3,0.1-0.3c0-0.1-0.1,0.1-0.2,0.2c0,0-0.2,0.1-0.2,0.1
				c0,0,0,0-0.1,0.1c-0.1,0,0,0.1,0,0.1s-0.4,0.4-0.5,0.5c-0.1,0.1-0.2,0.4-0.2,0.6c0,0.2,0.1,0.7,0.2,0.7c0.1,0,0.2-0.4,0.2-0.3
				c0.1,0.1,0.1-0.2,0.2-0.3c0.1-0.1,0.5,0,0.6,0.1c0.1,0.1,0.5,0.9,0.6,0.9c0.1,0,0.2,0.1,0.2,0.2c0.1,0.1,0,0.1-0.1,0.2
				c0,0.1,0,0.1,0.1,0.1c0.1,0.1,0,0-0.1,0.1c0,0.1,0.1,0.1,0.2,0.2c0.1,0.1,0.1,0.2,0.2,0.2c0.1,0,0.1-0.2,0.1-0.3
				c0-0.1-0.1-0.2-0.1-0.2c0,0,0-0.2,0-0.3c0-0.1,0.1-0.1,0.1-0.1c0.1,0,0.2-0.2,0.3-0.4c0-0.2,0-0.3-0.2-0.6c-0.3-0.3,0-0.2,0-0.3
				c0-0.1,0-0.1,0-0.2c0-0.1-0.1-0.1,0-0.1c0.1-0.1,0-0.3,0-0.4c0-0.1,0.2-0.1,0.2-0.1c0,0,0.1,0,0.2,0.1c0.1,0,0,0,0-0.1
				c0,0,0.2,0,0.2,0c0,0,0.2,0.2,0.2,0.3c0,0.1,0.3,0.2,0.4,0.2c0.1,0.1,0.1,0.3,0.1,0.4c0,0.1,0.1,0.2,0.2,0.3
				c0.1,0.1,0.4-0.4,0.4-0.5c0-0.1,0.2,0.3,0.2,0.3s0.2,0.5,0.3,0.5c0.1,0.1,0,0.2,0,0.2s0.2,0.3,0.3,0.4c0.1,0.1,0.2,0.1,0.3,0.2
				c0.1,0.1-0.2,0.2-0.3,0.3c-0.1,0.1,0.3-0.1,0.3-0.2c0.1,0,0.2,0.1,0.3,0.2c0.1,0.1,0,0.3,0,0.3c0,0,0.1,0.2,0.1,0.3
				c0,0-0.1,0.1-0.1,0.2c0,0,0,0.1,0.1,0.2c0.1,0.1,0.4,0.2,0.4,0.4c0,0.1,0,0.2,0,0.3c0,0.1-0.1,0.1-0.1,0.1s-0.1,0-0.1-0.1
				c0,0-0.1,0-0.1,0.1c-0.1,0.1-0.1,0-0.2-0.1c-0.1-0.1,0.1-0.1,0.1-0.1c0,0-0.4-0.1-0.5-0.1c-0.1-0.1,0.2-0.6,0.2-0.7
				c0-0.1-0.3,0.2-0.4,0.3c-0.1,0.1-0.3,0-0.4-0.1c-0.1,0,0.2,0.2,0.2,0.3c0,0.1-0.1,0-0.2-0.1c-0.1-0.1-0.1-0.1-0.1-0.2
				c0,0-0.4,0-0.5,0.1c0,0.1,0.5,0.1,0.5,0.1c0,0,0,0.1,0,0.3c0,0.1-0.1,0-0.1,0s-0.1,0.1-0.1,0.2c0,0.1,0.1,0,0.1,0
				c0.2,0.1,0.2,0.1,0.3,0.2c0,0,0.1-0.2,0.2-0.2c0.1-0.1,0.1,0.2,0.2,0.3c0.1,0.1-0.1,0.1-0.2,0.1c-0.1,0-0.2,0.1-0.4,0.2
				c-0.2,0.1-0.2,0.2-0.3,0.2c-0.1,0-0.1-0.1-0.1-0.2c0-0.1,0.1-0.2,0.1-0.2c0-0.1-0.5,0.2-0.6,0.3c-0.1,0.1-0.2,0.2-0.2,0.3
				c0,0.1,0.2,0.1,0.2,0.1c0,0.1-0.2,0-0.2,0.1c0,0.1-0.3,0.1-0.4,0.2c-0.1,0-0.1,0.2-0.2,0.3c0,0.1-0.1,0.1-0.1,0.2
				c0,0.1-0.1,0.1-0.1,0.2c0,0.1,0.1,0.2,0.1,0.2c0,0.1-0.2,0.2-0.3,0.2c-0.1,0-0.4,0.4-0.5,0.4c-0.1,0-0.1,0.3-0.1,0.4
				c0,0.1,0.1,0.2,0.1,0.3c0,0.1,0.1,0.2,0.1,0.3c0,0.1,0,0.3-0.1,0.3c0,0-0.1,0-0.1,0c0,0-0.1-0.1-0.2-0.3c-0.1-0.1,0-0.2,0-0.2
				c0-0.1-0.1-0.1-0.2-0.2c-0.1-0.1-0.1,0-0.2,0c-0.1,0-0.3,0-0.4-0.1c-0.1-0.1-0.1,0-0.2-0.1c-0.1,0-0.2,0.1-0.2,0.1
				c0,0-0.1,0.1-0.2,0.1c-0.1,0-0.2-0.1-0.3-0.1c-0.1,0-0.2,0-0.3,0c-0.1,0-0.2,0.1-0.2,0.1c0,0-0.3,0.1-0.3,0.2
				c-0.1,0.1,0,0.3,0,0.4c0,0,0,0.1-0.1,0.1c0,0.1-0.1,0.1,0,0.7c0.1,0.6,0.7,0.5,0.8,0.5c0.1,0,0.2-0.4,0.2-0.5
				c0-0.1,0.5-0.2,0.6-0.1c0.1,0.1-0.2,0.6-0.2,0.6c-0.1,0,0.1,0.2,0.2,0.3c0.1,0.1,0.6,0.2,0.6,0.3c0,0.1-0.1,0.5-0.1,0.6
				c0,0.1,0.2,0.2,0.4,0.3c0.2,0.1,0.1-0.1,0.2-0.1c0.1,0,0.3,0.1,0.3,0.1c0,0,0.2,0,0.3-0.2c0.1-0.2,0.3-0.2,0.3-0.2
				c0.1,0,0.3-0.2,0.3-0.2s0.1,0.2,0.1,0.2c0,0,0.1-0.1,0.1-0.1s0.5,0,0.6,0c0,0,0.1,0.1,0.1,0.1c0,0,0.2,0.1,0.2,0
				c0.1-0.1,0.2,0,0.3,0.1c0.1,0.1,0.3-0.1,0.4-0.1c0.1-0.1,0,0.2-0.1,0.3c-0.1,0.1,0.4,0.4,0.4,0.5c0.1,0.1,0,0.2,0,0.3
				c0,0.1,0.1,0.4,0.1,0.5c0.1,0,0.1-0.1,0.1-0.1c0.1-0.1,0.2,0.1,0.2,0.1c0.1,0,0.2-0.3,0.2-0.4c0.1-0.1,0.1,0.3,0.2,0.3
				c0,0,0.1,0.1,0.1,0.2c0,0.1-0.1,0.2-0.2,0.2c0,0-0.1,0.1-0.1,0.2c0,0,0.2,0,0.2-0.1c0.1,0,0.2-0.1,0.2-0.1c0,0-0.1,0.2-0.1,0.3
				c0,0.1,0.3-0.3,0.3-0.3c0.1,0,0.2,0.1,0.2,0.1c0,0,0,0.1,0,0.2c0,0.1,0,0,0.1,0c0-0.1,0.1,0,0.2,0.1c0.1,0,0.3,0,0.4,0
				c0.1,0,0.1,0.1,0.2,0.2c0.1,0.1,0.1,0.1,0.1,0.1c0.1,0,0.2,0.1,0.2,0.1C382.7,212.4,382.7,212.6,382.6,212.7z M376.6,199.5
				C376.6,199.5,376.6,199.5,376.6,199.5C376.5,199.4,376.5,199.4,376.6,199.5C376.5,199.4,376.5,199.4,376.6,199.5
				c0-0.1,0-0.1,0-0.1C376.7,199.3,376.6,199.4,376.6,199.5z M376.6,198.1C376.6,198.1,376.6,198,376.6,198.1
				C376.6,198,376.6,198,376.6,198.1C376.6,198,376.6,198.1,376.6,198.1c0.1-0.1,0.1-0.1,0.2-0.1c0.1,0,0.1,0.1,0.1,0.2
				c0,0.1-0.1,0.1-0.3,0.1C376.5,198.2,376.6,198.1,376.6,198.1z M376.3,199.9C376.2,199.9,376.2,199.9,376.3,199.9
				c-0.1-0.1,0-0.1,0-0.2c0.1,0,0,0,0.1,0.1C376.4,199.8,376.3,199.9,376.3,199.9z M375.8,199.7c0,0-0.2,0.1-0.2,0
				c0,0,0.1,0,0.1-0.1c0-0.1,0.1-0.1,0.2,0C376.1,199.6,375.9,199.7,375.8,199.7z M378.2,209c0,0-0.3,0.1-0.3,0.1
				c-0.1,0-0.1,0.1-0.1,0.1c0,0-0.2,0-0.3-0.1c-0.1,0-0.2,0-0.3-0.1c-0.1-0.1,0.3-0.1,0.3-0.2c0,0,0.1,0,0.1,0c0-0.1,0.1,0,0.2,0
				C378,208.8,378.2,209,378.2,209z M375.9,208.5c-0.1,0-0.2,0-0.2-0.1c0,0,0-0.1,0-0.1c0,0,0.4-0.3,0.5-0.2
				c0.1,0.1,0.3,0.1,0.4,0.1c0.1,0,0.4,0.2,0.5,0.3c0.1,0.1,0.2,0.2,0.1,0.2c-0.1,0.1-0.4,0.1-0.5,0c-0.1-0.1-0.3-0.2-0.4-0.2
				C376.2,208.5,376,208.5,375.9,208.5C375.9,208.5,376,208.6,375.9,208.5z M382.8,198.2c0.1,0-0.1,0-0.1,0.1c0,0,0,0.1,0.1,0.1
				c0.1,0,0.3,0.2,0.3,0.2s-0.5,0.3-0.6,0.3c-0.1,0-0.2-0.2-0.2-0.2s0,0.1,0.1,0.2c0.1,0.1-0.2,0.4-0.2,0.4c-0.1,0,0,0.2-0.1,0
				c-0.1-0.1-0.2,0.1-0.3,0.1c-0.1,0-0.1,0.2-0.1,0.3c0,0.1-0.1,0.2-0.2,0.3c-0.1,0.1-0.1,0.8-0.1,0.8c0,0-0.1,0-0.1,0
				s-0.1-0.1-0.1-0.2c0-0.1-0.1,0-0.1-0.1c0-0.1-0.2,0-0.2,0c0-0.1,0.1,0,0.1-0.1c0-0.1-0.5-0.6-0.6-0.7c-0.1-0.1-0.1-0.1,0.2-0.2
				c0.2,0-0.1-0.1-0.2-0.2c-0.1-0.1-0.3-0.2-0.3-0.3c0-0.1-0.2-0.4-0.2-0.4c0-0.1,0-0.2,0.1-0.3c0.1,0,0.2-0.1,0.1-0.2
				c0-0.1,0.1-0.1,0-0.2c0-0.1,0-0.1-0.2-0.1c-0.1-0.1,0,0.1,0,0.1c-0.1,0.1-0.1,0.1-0.1,0.2c0,0-0.3-0.3-0.3-0.3c0-0.1,0.3,0,0.2,0
				c0-0.1-0.3-0.1-0.2-0.2c0,0,0.1-0.1,0.3,0c0.2,0.1,0.2,0.1,0.2,0c0-0.1-0.1-0.2-0.2-0.3c0-0.1-0.1-0.1-0.2-0.1
				c-0.1,0-0.2,0.1-0.2,0c-0.1-0.1,0-0.1,0-0.1c0,0,0.1,0,0.1-0.1c-0.1-0.1,0,0,0-0.1c0,0,0,0-0.1-0.1c-0.1-0.1-0.2-0.1-0.2-0.1
				c0.1-0.1-0.1-0.2-0.1-0.2c0,0-0.1-0.1-0.1-0.2c0,0-0.1-0.1-0.1-0.2c0-0.1-0.1-0.1-0.3-0.2c-0.1-0.1-0.3-0.2-0.4-0.2
				c-0.1,0-0.2,0.1-0.4,0c-0.2,0-0.4-0.1-0.4-0.2c-0.1-0.1,0,0-0.1-0.1c-0.1-0.1-0.2-0.1-0.2-0.1c0-0.1,0.2,0,0.2,0c0,0,0.1,0,0.1,0
				c0-0.1,0.2,0,0.3,0c0.1,0-0.1,0-0.1-0.1c0,0-0.2,0-0.2,0c-0.1,0-0.2,0-0.1,0c0.1,0,0.1,0,0-0.1c-0.1-0.1-0.2-0.1-0.3-0.2
				c-0.1-0.1,0.3-0.1,0.3-0.1c0.1,0,0-0.1,0.1,0c0.1,0,0.3,0,0.3,0c0,0,0.1,0,0.1,0c0,0-0.1,0-0.1-0.1c-0.1,0,0.1,0,0.1,0
				c0,0,0,0-0.1,0c-0.1,0-0.2,0-0.3,0c-0.1,0-0.1,0-0.1-0.1c0,0,0,0,0-0.1c0.1,0,0.1,0,0.1,0c0,0,0.1,0,0.2,0c0.1,0,0.1,0,0.1,0
				c0,0,0.1,0,0.2,0.1c0.1,0-0.1,0-0.1-0.1c0,0,0,0,0,0c0,0-0.1,0-0.1,0c-0.1,0,0.1,0,0.1,0c0,0,0,0,0.1,0c0.1,0,0.2,0.1,0.3,0.1
				c-0.1,0-0.2-0.1-0.2-0.1c0,0,0.2,0,0.2,0.1c0,0,0.1,0,0.1,0c0,0,0,0,0,0h0h0l0,0c0,0,0,0,0,0c0,0,0.1,0,0.1,0h0c0,0,0,0,0.1,0
				l0,0c0.1,0,0.1,0,0.1,0c0,0,0.1,0,0.2,0.1c0.1,0,0,0,0,0c0,0-0.1,0-0.1,0c0,0-0.1,0-0.1,0c0.1,0,0.3,0.1,0.4,0.2c0,0,0,0,0,0
				c0,0,0.1,0,0.2,0.1c0,0,0,0,0,0c0,0,0,0,0,0c0,0,0,0,0,0c0,0,0,0,0.1,0c0,0,0,0,0,0c0,0,0,0,0,0c0.9,0.4,1.8,0.9,2.6,1.4
				c0,0,0.1,0.1,0.1,0.1c0,0-0.1,0-0.1,0c0,0,0,0,0.1,0.1c0.1,0.1,0,0,0,0c0,0,0,0,0,0.1c0,0,0.1,0.1,0.1,0.1c0,0,0.1,0,0.1,0
				c0,0,0,0,0,0c0,0,0.1,0.1,0.1,0.1c0,0,0.1,0,0.1,0s0.1,0.2,0.1,0.2c0,0-0.1-0.1-0.2-0.2c-0.1-0.1-0.1,0-0.1,0
				c0,0,0.1,0.1,0.1,0.1c0,0,0.3,0.3,0.3,0.3c0,0-0.2-0.1-0.3-0.2c0,0,0.1,0.1,0.2,0.2c0.1,0.1,0.2,0.2,0.2,0.2c0,0-0.1,0-0.2,0
				c0,0,0.2,0.2,0.2,0.2c0,0,0.1,0.1,0.1,0.1s-0.1,0-0.2-0.1c-0.1-0.1,0,0.1,0,0.1s0,0.1,0,0c0,0-0.2-0.1-0.2-0.1s0.2,0.2,0.3,0.3
				c0.1,0.1,0.2,0.3,0.3,0.4c0.1,0.1,0,0.2-0.1,0.2c-0.1,0-0.2-0.1-0.2-0.1S382.8,198.1,382.8,198.2
				C382.7,198,382.7,198.1,382.8,198.2z M384.3,200.2c0,0.1-0.2,0.2-0.2,0.2s-0.3-0.1-0.3-0.1c0-0.1-0.1,0-0.2-0.1
				c0-0.1,0-0.1,0-0.1c0-0.1-0.1,0-0.2-0.1c0,0-0.1,0-0.1,0c0-0.1,0.2-0.1,0.2-0.1s-0.2-0.1-0.2-0.1c0,0,0-0.2,0.1-0.3
				c0.1-0.1,0.1,0.1,0.1,0.1s0.1,0.1,0.2,0.1c0.1,0,0.2,0,0.2,0c0.1,0,0.2,0.1,0.3,0.3C384.4,200.1,384.3,200.2,384.3,200.2z
				 M385.7,214L385.7,214c0,0,0-0.1,0.1-0.1C385.8,213.9,385.8,214,385.7,214z M387.6,207.3C387.6,207.3,387.6,207.3,387.6,207.3
				c0-0.1,0-0.1,0-0.1C387.6,207.2,387.6,207.3,387.6,207.3c0,0,0,0,0,0.1c0,0.1,0,0.2,0,0.2c0,0,0,0.2,0,0.3
				c-0.1,2.1-0.7,4.1-1.7,5.9c0,0,0,0,0,0c0,0,0,0,0,0c0,0,0,0,0,0c0,0,0.1-0.2,0.1-0.3c0-0.1,0.1-0.2,0.1-0.3
				c0-0.1,0.1-0.2,0.1-0.2c0,0,0-0.1,0-0.1c0,0,0-0.1,0-0.2c0,0,0-0.1,0-0.1c0-0.1,0.2-0.4,0.2-0.5c0,0,0.1-0.2,0.1-0.3
				c0-0.1,0-0.1,0-0.1c0,0,0-0.1,0-0.1c0,0,0-0.1,0-0.1c0,0,0-0.1,0-0.1c0,0,0-0.2,0-0.3c0-0.1-0.1-0.1-0.1-0.2
				c0-0.1,0.1-0.3,0.1-0.3c0,0,0.1-0.2,0.1-0.3c0,0,0-0.1-0.1-0.1c0,0-0.1,0.1-0.1,0c0,0,0-0.2-0.1-0.2c0,0-0.1,0-0.1,0
				s-0.1,0-0.1,0.1c0,0.1-0.1,0.2-0.2,0.2c-0.1,0-0.2,0-0.2,0c0,0-0.2,0.1-0.3,0.2c-0.1,0-0.4-0.4-0.5-0.5c0-0.1-0.1-0.4-0.1-0.4
				c0,0-0.2-0.1-0.2-0.2c0-0.1,0.1-0.4,0.1-0.5c0,0,0.1-0.5,0.1-0.6c0-0.1,0-0.3,0-0.4c0,0,0.2-0.6,0.3-0.7c0.1-0.1,0.3-0.3,0.3-0.3
				s0-0.1,0-0.2c0-0.1,0-0.2,0.1-0.3c0-0.1,0.1-0.2,0.2-0.3c0-0.1,0.1-0.2,0.1-0.2c0,0,0-0.1,0,0c0,0.1,0.1,0,0.1,0.1
				c0,0,0.2,0,0.2,0c0,0,0.1-0.1,0.1-0.1c0,0,0.2-0.1,0.2,0c0.1,0,0.2-0.1,0.2,0c0,0.1,0.1,0.1,0.1,0.1c0,0,0,0.1,0,0.2
				c0,0.1,0,0.2,0.1,0.3c0,0.1,0,0.1,0.1,0.1c0,0,0.1,0,0.1,0.1c0,0.1,0.1,0.2,0.1,0.2c0,0,0.1-0.4,0.1-0.3c0,0.1,0.1,0.2,0.1,0.2
				c0,0,0.1,0,0.1,0s0-0.1,0,0c0,0.1,0,0.1,0,0.1c0,0,0-0.1,0-0.1c0-0.2,0-0.3,0-0.5c0,0,0,0.1,0,0.2c0,0.1,0,0.3,0,0.3s0,0,0,0
				C387.6,207,387.6,207.1,387.6,207.3C387.6,207.2,387.6,207.3,387.6,207.3c0,0,0-0.1,0-0.1C387.6,207.1,387.6,207.2,387.6,207.3z"
				/>
			<path class="st0" d="M378.3,194.5C378.3,194.5,378.3,194.5,378.3,194.5C378.3,194.5,378.4,194.5,378.3,194.5z"/>
		</g>
		<path id="Discovery_2_" class="st0" d="M410.1,203.6c0,9.3-7.1,16.5-17.4,16.5h-10c2-1.3,3.7-3.1,4.9-5.3h5.1
			c6.9,0,11.4-4.6,11.4-11.1c0-6.5-4.5-11.2-11.4-11.2h-6.5v4.8c-0.9-1.2-2.1-2.2-3.3-3.1c-0.8-0.5-1.6-1-2.5-1.4v-5.6h12.2
			C403,187.2,410.1,194.3,410.1,203.6z M413.4,220.2h5.7v-24.8h-5.7V220.2z M440.1,208c-0.7-0.5-1.6-1-2.5-1.4
			c-0.9-0.4-1.8-0.7-2.7-1c-0.7-0.3-1.4-0.5-2.1-0.7c-0.7-0.2-1.3-0.5-1.8-0.7c-0.5-0.3-0.9-0.6-1.2-0.9c-0.3-0.3-0.5-0.7-0.5-1.1
			V202c0-0.7,0.3-1.3,0.9-1.8c0.6-0.5,1.5-0.7,2.6-0.7c1,0,2.2,0.2,3.4,0.6c1.2,0.4,2.4,1,3.6,1.7l2.2-4c-1.3-0.9-2.8-1.6-4.4-2.1
			c-1.6-0.5-3.2-0.7-4.7-0.7c-1.2,0-2.4,0.2-3.4,0.5c-1.1,0.3-2,0.8-2.8,1.5c-0.8,0.7-1.4,1.4-1.9,2.4c-0.5,0.9-0.7,2-0.7,3.2v0.1
			c0,1.2,0.2,2.2,0.7,3c0.5,0.8,1.1,1.5,1.8,2c0.7,0.6,1.6,1,2.5,1.3c0.9,0.3,1.8,0.6,2.7,0.9c0.7,0.2,1.4,0.4,2.1,0.6
			c0.7,0.2,1.3,0.4,1.8,0.7c0.5,0.3,0.9,0.6,1.2,0.9c0.3,0.3,0.4,0.7,0.4,1.2v0.1c0,0.8-0.3,1.5-1,1.9c-0.7,0.5-1.6,0.7-2.8,0.7
			c-1.3,0-2.6-0.3-4-0.8c-1.4-0.5-2.8-1.3-4.1-2.3l-2.5,3.9c1.6,1.2,3.3,2.1,5.1,2.8c1.8,0.6,3.6,0.9,5.4,0.9c1.3,0,2.5-0.2,3.6-0.5
			c1.1-0.3,2.1-0.8,2.9-1.5c0.8-0.6,1.5-1.4,2-2.4c0.5-1,0.7-2.1,0.7-3.4v-0.1c0-1.1-0.2-2.1-0.7-2.9
			C441.5,209.2,440.9,208.5,440.1,208z M494.9,202.8c0.7,1.5,1,3.2,1,5v0.1c0,1.8-0.3,3.4-1,5c-0.7,1.6-1.6,2.9-2.8,4.1
			c-1.2,1.2-2.6,2.1-4.2,2.8c-1.6,0.7-3.4,1-5.3,1c-1.9,0-3.6-0.3-5.2-1c-1.6-0.7-3-1.6-4.2-2.7c-1.2-1.2-2.1-2.5-2.7-4.1
			c-0.7-1.6-1-3.2-1-5v-0.1c0-1.8,0.3-3.5,1-5c0.7-1.6,1.6-2.9,2.8-4.1c1.2-1.2,2.6-2.1,4.2-2.8c1.6-0.7,3.4-1,5.3-1
			c1.9,0,3.7,0.3,5.3,1c1.6,0.7,3,1.6,4.2,2.8C493.4,199.9,494.3,201.3,494.9,202.8z M490.2,207.9c0-1.1-0.2-2.1-0.6-3.1
			c-0.4-1-0.9-1.8-1.6-2.5c-0.7-0.7-1.5-1.3-2.4-1.7c-0.9-0.4-1.9-0.6-3.1-0.6c-1.1,0-2.1,0.2-3.1,0.6c-0.9,0.4-1.7,1-2.4,1.7
			c-0.7,0.7-1.2,1.5-1.5,2.5c-0.3,1-0.5,2-0.5,3.1v0.1c0,1.1,0.2,2.1,0.6,3c0.4,1,0.9,1.8,1.6,2.6c0.7,0.7,1.5,1.3,2.4,1.7
			c0.9,0.4,1.9,0.6,3,0.6c1.2,0,2.2-0.2,3.1-0.6c0.9-0.4,1.7-1,2.4-1.7c0.7-0.7,1.2-1.6,1.5-2.5
			C490.1,210.1,490.2,209.1,490.2,207.9L490.2,207.9z M508.9,213.7l-6.7-18.2h-6.1l10.2,25h5.1l10.1-25h-6L508.9,213.7z
			 M545.4,203.2c0.5,1.6,0.8,3.3,0.8,5.1c0,0.2,0,0.5,0,0.8c0,0.3,0,0.5-0.1,0.8h-18.2c0.3,2,1.1,3.6,2.4,4.7
			c1.3,1.1,2.9,1.6,4.7,1.6c1.4,0,2.6-0.3,3.7-0.8c1-0.5,2-1.2,3-2.2l3.3,3c-1.2,1.4-2.6,2.5-4.3,3.4c-1.6,0.8-3.6,1.3-5.9,1.3
			c-1.8,0-3.4-0.3-5-0.9c-1.5-0.6-2.9-1.5-4-2.6c-1.1-1.1-2-2.5-2.7-4.1c-0.7-1.6-1-3.3-1-5.2v-0.1c0-1.8,0.3-3.5,0.9-5
			c0.6-1.6,1.4-2.9,2.5-4.1c1.1-1.2,2.4-2.1,3.8-2.8c1.5-0.7,3.1-1,4.9-1c2,0,3.7,0.4,5.2,1.1c1.5,0.7,2.7,1.7,3.7,2.9
			C544.1,200.2,544.9,201.6,545.4,203.2z M540.5,205.5c-0.1-0.9-0.3-1.2-0.6-2c-0.3-0.8-0.7-1.5-1.3-2.1c-0.5-0.6-1.2-1.1-1.9-1.4
			c-0.7-0.3-1.6-0.5-2.5-0.5c-1.8,0-3.2,0.6-4.3,1.8c-1.1,1.2-1.8,2.2-2.1,4.1H540.5z M458.3,215.9c-4.4,0-7.4-3.6-7.4-8
			c0-4.4,3-7.9,7.1-7.9c2.9,0,4.7,1.3,6.4,3.1l3.5-3.8c-2.3-2.5-5.2-4.3-9.9-4.3c-7.4,0-12.9,5.9-12.9,13c0,7.1,5.4,12.8,12.8,12.8
			c4.8,0,7.7-1.9,10.1-4.6l-3.4-3.4C462.9,214.6,461,215.9,458.3,215.9z M556,199.6v-4.1h-5.7v24.8h5.7v-9.4c0-1.7,0.2-3.1,0.6-4.3
			c1.7-4.5,6.5-5.8,8.9-6.2l-1.9-4.7C561.6,196,558.2,196.9,556,199.6z M585.7,195.5l-6.3,18.2l-5.9-18.2h-6.1l9.2,24.6l-0.1,0.2
			c0,0-1.9,5-3.5,6.2c-1.3,0.7-4.3,0.6-5.5,0.5v4.6c2,0,6.7,0.1,8.2-0.8c1.9-1.2,2.3-1.7,3.6-4.3c1.4-2.9,12.3-31,12.3-31H585.7z"/>
		<g>
			<path class="st0" d="M289.3,114.4h-4.6c-5.8,0-8.2-2.3-8.2-6.8c0-4.5,2.4-6.8,8.2-6.8h4.6V90.6c0-12.9,10.7-19.8,22.7-19.8
				c7.5,0,13.5,3,13.5,9.9c0,3.8-3,7-6.6,7c-1.6,0-3-0.4-4.5-0.4c-3,0-4.5,2-4.5,4.8v8.9h6.3c6.1,0,9.3,1.8,9.3,6.8
				c0,4.9-3.2,6.8-9.3,6.8h-6.3V166c0,6.7-4.1,10.3-10.3,10.3c-6.2,0-10.3-3.5-10.3-10.3V114.4z"/>
			<path class="st0" d="M392.6,154.6c0,8.6,2.1,10.6,2.1,13.8c0,4.6-4.4,7.9-9.3,7.9c-8.9,0-11.8-5.6-12.1-12
				c-8,8.9-17.3,12-28.1,12c-11.7,0-23.2-8-23.2-21c0-17,12.9-21.8,28.7-23.6l12.5-1.4c4.9-0.6,8.9-1.7,8.9-7.6
				c0-5.9-6.1-8.5-12.9-8.5c-15.2,0-15.6,11.3-23.8,11.3c-5.2,0-8.7-3.7-8.7-7.9c0-8.2,11.5-18.6,32.6-18.6
				c19.7,0,33.3,6.3,33.3,21.1V154.6z M372.1,139.9c-2.3,2.1-6.5,2.8-8.9,3.2l-7.5,1.1c-8.6,1.3-13.2,3.9-13.2,10.1
				c0,4.6,4.4,8.4,11.4,8.4c11.3,0,18.2-7.3,18.2-14.9V139.9z"/>
			<path class="st0" d="M399.8,109.3c0-6.2,3.7-10.3,9.7-10.3c6.1,0,9.7,4.1,9.7,10.3v2.7h0.3c5.3-8.2,14.4-12.9,24.8-12.9
				c7,0,15.9,3.2,19.7,12.9c5.8-8,13.1-12.9,24.2-12.9c14.2,0,25.6,6.5,25.6,24.9V166c0,5.5-2.2,10.3-10.3,10.3
				c-8,0-10.3-4.8-10.3-10.3v-36.9c0-7.3-3.2-13.2-11.3-13.2c-7.9,0-14.9,6.3-14.9,15.9V166c0,5.5-2.3,10.3-10.3,10.3
				c-8,0-10.3-4.8-10.3-10.3v-36.9c0-7.3-3.2-13.2-11.3-13.2c-7.9,0-14.9,6.3-14.9,15.9V166c0,5.5-2.3,10.3-10.3,10.3
				c-8,0-10.3-4.8-10.3-10.3V109.3z"/>
			<path class="st0" d="M520.6,118.3c0-5.5,2.3-10.3,10.3-10.3s10.3,4.8,10.3,10.3V166c0,5.5-2.2,10.3-10.3,10.3
				s-10.3-4.8-10.3-10.3V118.3z"/>
			<path class="st0" d="M549.2,74.4c0-6.7,4.1-10.3,10.3-10.3c6.2,0,10.3,3.5,10.3,10.3V166c0,6.7-4.1,10.3-10.3,10.3
				c-6.2,0-10.3-3.5-10.3-10.3V74.4z"/>
			<path class="st0" d="M673.5,154.6c0,8.6,2.1,10.6,2.1,13.8c0,4.6-4.4,7.9-9.3,7.9c-8.9,0-11.8-5.6-12.1-12
				c-8,8.9-17.3,12-28.1,12c-11.7,0-23.2-8-23.2-21c0-17,12.9-21.8,28.7-23.6l12.5-1.4c4.9-0.6,8.9-1.7,8.9-7.6
				c0-5.9-6-8.5-12.9-8.5c-15.2,0-15.6,11.3-23.8,11.3c-5.2,0-8.7-3.7-8.7-7.9c0-8.2,11.5-18.6,32.6-18.6c19.7,0,33.3,6.3,33.3,21.1
				V154.6z M652.9,139.9c-2.3,2.1-6.5,2.8-8.9,3.2l-7.5,1.1c-8.6,1.3-13.2,3.9-13.2,10.1c0,4.6,4.4,8.4,11.4,8.4
				c11.3,0,18.2-7.3,18.2-14.9V139.9z"/>
			<path class="st0" d="M546,44.7c0-7.9,6.4-14.3,14.3-14.3c7.9,0,14.3,6.4,14.3,14.3c0,7.9-6.4,14.3-14.3,14.3
				C552.4,59,546,52.6,546,44.7z"/>
			<path class="st0" d="M520.2,90.5c0-5.9,4.8-10.7,10.7-10.7c5.9,0,10.7,4.8,10.7,10.7c0,5.9-4.8,10.7-10.7,10.7
				C525,101.2,520.2,96.4,520.2,90.5z"/>
			<path class="st0" d="M577.6,118.3c0-5.5,2.3-10.3,10.3-10.3c8,0,10.3,4.8,10.3,10.3V166c0,5.5-2.2,10.3-10.3,10.3
				c-8,0-10.3-4.8-10.3-10.3V118.3z"/>
			<path class="st0" d="M577.2,90.4c0-5.9,4.8-10.7,10.7-10.7c5.9,0,10.7,4.8,10.7,10.7c0,5.9-4.8,10.7-10.7,10.7
				C582,101.1,577.2,96.3,577.2,90.4z"/>
		</g>
	</g>
</g>
</svg>
