<svg width="20" height="20" xmlns="http://www.w3.org/2000/svg" xmlns:xlink="http://www.w3.org/1999/xlink"><defs><path d="M6.732 10.925l2.753 2.753.707.707 2.993-2.993 3.583 3.583.707-.707-3.583-3.583 5.493-5.493-.707-.707-8.486 8.486-8.485-8.486L1 5.192l5.025 5.026L2 14.243l.707.707 4.025-4.025zM2 0h16a2 2 0 0 1 2 2v16a2 2 0 0 1-2 2H2a2 2 0 0 1-2-2V2a2 2 0 0 1 2-2z" id="a"/></defs><g fill="none" fill-rule="evenodd"><mask id="b" fill="#fff"><use xlink:href="#a"/></mask><use fill="#9B9B9B" xlink:href="#a"/><g mask="url(#b)" fill="#FFF"><path d="M0 0h20v20H0z"/></g></g></svg>