<svg width="20" height="20" xmlns="http://www.w3.org/2000/svg" xmlns:xlink="http://www.w3.org/1999/xlink"><defs><path d="M1.68 0h16.64C19.246 0 20 .755 20 1.677v16.644c0 .924-.755 1.679-1.68 1.679H1.68C.754 20 0 19.245 0 18.32V1.678C0 .755.755 0 1.68 0zm11.708 6.722c0-.671.448-.828.764-.828h1.935V2.937l-2.665-.012c-2.958 0-3.632 2.207-3.632 3.618v1.56H8.08v3.45h1.725v8.443h3.45c.013 0 0-4.58 0-8.444h2.88l-.005-3.449h-2.742v-1.38z" id="a"/></defs><g fill="none" fill-rule="evenodd"><mask id="b" fill="#fff"><use xlink:href="#a"/></mask><use fill="#486BB4" xlink:href="#a"/><g mask="url(#b)" fill="#FFF"><path d="M0 0h20v20H0z"/></g></g></svg>