<svg width="20" height="15" xmlns="http://www.w3.org/2000/svg" xmlns:xlink="http://www.w3.org/1999/xlink"><defs><path d="M20 2.75a8.268 8.268 0 0 1-2.06 1.973v.489a10.037 10.037 0 0 1-.48 3.044A10.647 10.647 0 0 1 16 11.17a11.781 11.781 0 0 1-2.34 2.472 10.683 10.683 0 0 1-3.27 1.72c-1.32.432-2.701.648-4.09.638A12.06 12.06 0 0 1 0 14.299c.332.033.666.049 1 .047a8.452 8.452 0 0 0 5.09-1.617 4.17 4.17 0 0 1-2.39-.76 3.723 3.723 0 0 1-1.45-1.88c.255.036.512.055.77.056a4.56 4.56 0 0 0 1.08-.131 4.057 4.057 0 0 1-2.35-1.307 3.498 3.498 0 0 1-.93-2.415v-.047c.568.295 1.202.46 1.85.48A3.914 3.914 0 0 1 1.33 5.38a3.564 3.564 0 0 1 .06-3.76 11.482 11.482 0 0 0 3.74 2.82 12.114 12.114 0 0 0 4.72 1.222 3.852 3.852 0 0 1-.1-.865 3.523 3.523 0 0 1 1.2-2.687A4.296 4.296 0 0 1 13.914 1a4.28 4.28 0 0 1 2.926 1.194 8.44 8.44 0 0 0 2.6-.94 3.76 3.76 0 0 1-1.8 2.087A8.672 8.672 0 0 0 20 2.75" id="a"/></defs><g fill="none" fill-rule="evenodd"><path d="M20 1.75a8.268 8.268 0 0 1-2.06 1.973v.489a10.037 10.037 0 0 1-.48 3.044A10.647 10.647 0 0 1 16 10.17a11.781 11.781 0 0 1-2.34 2.472 10.683 10.683 0 0 1-3.27 1.72c-1.32.432-2.701.648-4.09.638A12.06 12.06 0 0 1 0 13.299c.332.033.666.049 1 .047a8.452 8.452 0 0 0 5.09-1.617 4.17 4.17 0 0 1-2.39-.76 3.723 3.723 0 0 1-1.45-1.88c.255.036.512.055.77.056a4.56 4.56 0 0 0 1.08-.131 4.057 4.057 0 0 1-2.35-1.307 3.498 3.498 0 0 1-.93-2.415v-.047c.568.295 1.202.46 1.85.48A3.914 3.914 0 0 1 1.33 4.38 3.564 3.564 0 0 1 1.39.62a11.482 11.482 0 0 0 3.74 2.82 12.114 12.114 0 0 0 4.72 1.222 3.852 3.852 0 0 1-.1-.865 3.523 3.523 0 0 1 1.2-2.687A4.296 4.296 0 0 1 13.914 0a4.28 4.28 0 0 1 2.926 1.194 8.44 8.44 0 0 0 2.6-.94 3.76 3.76 0 0 1-1.8 2.087A8.672 8.672 0 0 0 20 1.75" fill="#63ACFC"/><g transform="translate(0 -1)"><mask id="b" fill="#fff"><use xlink:href="#a"/></mask><g mask="url(#b)" fill="#FFF"><path d="M0 0h20v17H0z"/></g></g></g></svg>