<svg width="19" height="19" xmlns="http://www.w3.org/2000/svg" xmlns:xlink="http://www.w3.org/1999/xlink"><defs><path d="M1.723 14.932l-.947 3.27 3.383-.872.35.218a9.477 9.477 0 1 0-3.023-2.976l.237.36zM3.77 6.024A3.374 3.374 0 0 1 4.89 4.318a.948.948 0 0 1 .635-.218h.739a.389.389 0 0 1 .35.275l1.062 2.52a.38.38 0 0 1-.066.399l-.948 1.09a.284.284 0 0 0 0 .312 7.695 7.695 0 0 0 4.141 3.601c.114.038.24 0 .313-.094l.948-1.27a.38.38 0 0 1 .464-.114l2.502 1.156a.38.38 0 0 1 .218.427l-.123.55a2.388 2.388 0 0 1-1.042 1.516 3.156 3.156 0 0 1-2.673.331 12.017 12.017 0 0 1-6.482-4.738A5.156 5.156 0 0 1 3.77 6.024z" id="a"/></defs><g fill="none" fill-rule="evenodd"><mask id="b" fill="#fff"><use xlink:href="#a"/></mask><use fill="#25D366" fill-rule="nonzero" xlink:href="#a"/><g mask="url(#b)" fill="#FFF"><path d="M0 0h20v20H0z"/></g></g></svg>