<svg width="14" height="14" xmlns="http://www.w3.org/2000/svg" xmlns:xlink="http://www.w3.org/1999/xlink"><defs><path d="M13.3.71a.996.996 0 0 0-1.41 0L7 5.59 2.11.7A.996.996 0 0 0 .7.7a.996.996 0 0 0 0 1.41L5.59 7 .7 11.89a.996.996 0 1 0 1.41 1.41L7 8.41l4.89 4.89a.996.996 0 1 0 1.41-1.41L8.41 7l4.89-4.89c.38-.38.38-1.02 0-1.4z" id="a"/></defs><g fill="none" fill-rule="evenodd"><path d="M-5-5h24v24H-5z"/><mask id="b" fill="#fff"><use xlink:href="#a"/></mask><use fill="#000" fill-rule="nonzero" xlink:href="#a"/><g mask="url(#b)"><path fill="#FFF" d="M-5-5h24v24H-5z"/></g></g></svg>