<?xml version="1.0" encoding="UTF-8"?>
<svg width="14px" height="14px" viewBox="0 0 14 14" version="1.1" xmlns="http://www.w3.org/2000/svg" xmlns:xlink="http://www.w3.org/1999/xlink">
    <!-- Generator: sketchtool 53.1 (72631) - https://sketchapp.com -->
    <title>22E558E5-1EB8-4F7F-8454-0FAAE49C8B4F</title>
    <desc>Created with sketchtool.</desc>
    <defs>
        <path d="M13.3,0.71 C12.91,0.32 12.28,0.32 11.89,0.71 L7,5.59 L2.11,0.7 C1.72,0.31 1.09,0.31 0.7,0.7 C0.31,1.09 0.31,1.72 0.7,2.11 L5.59,7 L0.7,11.89 C0.31,12.28 0.31,12.91 0.7,13.3 C1.09,13.69 1.72,13.69 2.11,13.3 L7,8.41 L11.89,13.3 C12.28,13.69 12.91,13.69 13.3,13.3 C13.69,12.91 13.69,12.28 13.3,11.89 L8.41,7 L13.3,2.11 C13.68,1.73 13.68,1.09 13.3,0.71 Z" id="path-1"></path>
    </defs>
    <g id="Titular-gráfico" stroke="none" stroke-width="1" fill="none" fill-rule="evenodd">
        <g id="Resultados-Busqeuda-TG" transform="translate(-389.000000, -19.000000)">
            <g id="atoms/Icons/ui/navigation/close/filled" transform="translate(384.000000, 14.000000)">
                <g id="round-close-24px">
                    <polygon id="Shape" points="0 0 24 0 24 24 0 24"></polygon>
                    <g id="atoms/Color/Basic/-Black-#000000" transform="translate(5.000000, 5.000000)">
                        <mask id="mask-2" fill="white">
                            <use xlink:href="#path-1"></use>
                        </mask>
                        <use id="Mask" fill="#000000" fill-rule="nonzero" xlink:href="#path-1"></use>
                        <g mask="url(#mask-2)" id="atoms/Color/Basic/-W1-#ffffff">
                            <g transform="translate(-5.000000, -5.000000)">
                                <g>
                                    <rect id="Color/Basic/-#ffffff" fill="#FFFFFF" x="0" y="0" width="24" height="24"></rect>
                                </g>
                            </g>
                        </g>
                    </g>
                </g>
            </g>
        </g>
    </g>
</svg>