<svg width="32" height="32" xmlns="http://www.w3.org/2000/svg" xmlns:xlink="http://www.w3.org/1999/xlink"><defs><circle id="a" cx="16" cy="16" r="16"/><path d="M1.111 4.444A.557.557 0 0 0 .556 5v8.333c0 .611.5 1.111 1.11 1.111H10c.306 0 .556-.25.556-.555a.557.557 0 0 0-.556-.556H2.222a.557.557 0 0 1-.555-.555V5a.557.557 0 0 0-.556-.556zM11.667 0H3.889c-.611 0-1.111.611-1.111 1.358v9.506c0 .747.5 1.358 1.11 1.358h7.779c.61 0 1.11-.61 1.11-1.358V1.358c0-.747-.5-1.358-1.11-1.358zm-.556 11.111H4.444c-.305 0-.555-.321-.555-.714V1.825c0-.392.25-.714.555-.714h6.667c.306 0 .556.322.556.714v8.572c0 .393-.25.714-.556.714z" id="c"/></defs><g fill="none" fill-rule="evenodd"><g opacity=".7"><mask id="b" fill="#fff"><use xlink:href="#a"/></mask><use fill="#000" xlink:href="#a"/><g mask="url(#b)" fill="#000"><path d="M0 0h32v32H0z"/></g></g><path d="M21.75 9.333v13.334H8.417V9.333z"/><g transform="rotate(90 7.042 16.375)"><mask id="d" fill="#fff"><use xlink:href="#c"/></mask><use fill="#000" fill-rule="nonzero" xlink:href="#c"/><g mask="url(#d)" fill="#FFF"><path d="M-2.333-1.583h18v18h-18z"/></g></g></g></svg>