<svg width="60" height="60" xmlns="http://www.w3.org/2000/svg" xmlns:xlink="http://www.w3.org/1999/xlink"><defs><path d="M24 .835C11.207.835.835 11.207.835 24S11.207 47.165 24 47.165 47.165 36.793 47.165 24 36.793.835 24 .835zm8.006 24.393l-11.582 7.239a1.448 1.448 0 0 1-2.215-1.228V16.76a1.447 1.447 0 0 1 2.215-1.228l11.582 7.24a1.45 1.45 0 0 1 0 2.455z" id="a"/></defs><g fill="none" fill-rule="evenodd"><circle fill="#000" opacity=".3" cx="30" cy="30" r="30"/><g transform="translate(6 6)"><mask id="b" fill="#fff"><use xlink:href="#a"/></mask><use fill="#000" fill-rule="nonzero" xlink:href="#a"/><g mask="url(#b)" fill="#000"><path d="M-6-6h60v60H-6z"/></g></g></g></svg>