<svg width="24" height="24" xmlns="http://www.w3.org/2000/svg" xmlns:xlink="http://www.w3.org/1999/xlink"><defs><path d="M15.75 3.5h-5.685l2.468-2.468L12 .5l-3 3h-.023l-3-3-.517.532L7.92 3.5H2.25c-.825 0-1.5.675-1.5 1.5v9c0 .825.675 1.5 1.5 1.5h13.5c.825 0 1.5-.675 1.5-1.5V5c0-.825-.675-1.5-1.5-1.5zm0 10.5H2.25V5h13.5v9z" id="a"/></defs><g fill="none" fill-rule="evenodd"><path d="M3 3h18v18H3z"/><g transform="translate(3 4)"><mask id="b" fill="#fff"><use xlink:href="#a"/></mask><use fill="#000" fill-rule="nonzero" xlink:href="#a"/><g mask="url(#b)" fill="#000"><path d="M-3-4h24v24H-3z"/></g></g></g></svg>