<svg width="31" height="31" xmlns="http://www.w3.org/2000/svg" xmlns:xlink="http://www.w3.org/1999/xlink"><defs><circle id="a" cx="15.5" cy="15.5" r="15.5"/><path d="M7.08.66a.833.833 0 0 0-1.18 0L.36 6.2c-.26.26-.26.68 0 .94l5.54 5.54a.833.833 0 0 0 1.18 0 .833.833 0 0 0 0-1.18L2.253 6.667l4.834-4.834A.83.83 0 0 0 7.08.66z" id="c"/></defs><g fill="none" fill-rule="evenodd"><g opacity=".7"><mask id="b" fill="#fff"><use xlink:href="#a"/></mask><use fill="red" xlink:href="#a"/><g mask="url(#b)" fill="#000"><path d="M0 0h31v31H0z"/></g></g><path opacity=".87" d="M7 7h16v16H7z"/><g transform="translate(11 8.333)"><mask id="d" fill="#fff"><use xlink:href="#c"/></mask><use fill="#000" fill-rule="nonzero" xlink:href="#c"/><g mask="url(#d)" fill="#FFF"><path d="M-4-1.333h16v16H-4z"/></g></g></g></svg>
