<svg width="31" height="31" xmlns="http://www.w3.org/2000/svg" xmlns:xlink="http://www.w3.org/1999/xlink"><defs><circle id="a" cx="15.5" cy="15.5" r="15.5"/><path d="M.253 12.673a.833.833 0 0 0 1.18 0l5.54-5.54c.26-.26.26-.68 0-.94L1.433.653a.833.833 0 0 0-1.18 0 .833.833 0 0 0 0 1.18L5.08 6.667.247 11.5a.83.83 0 0 0 .006 1.173z" id="c"/></defs><g fill="none" fill-rule="evenodd"><g opacity=".7"><mask id="b" fill="#fff"><use xlink:href="#a"/></mask><use fill="red" xlink:href="#a"/><g mask="url(#b)" fill="#000"><path d="M0 0h31v31H0z"/></g></g><path opacity=".87" d="M25 23H9V7h16z"/><g transform="translate(13.667 8.333)"><mask id="d" fill="#fff"><use xlink:href="#c"/></mask><use fill="#000" fill-rule="nonzero" xlink:href="#c"/><g mask="url(#d)" fill="#FFF"><path d="M-4.667-1.333h16v16h-16z"/></g></g></g></svg>