<svg width="24" height="24" xmlns="http://www.w3.org/2000/svg" xmlns:xlink="http://www.w3.org/1999/xlink"><defs><path d="M0 6v6h4l5 5V1L4 6H0zm13.5 3A4.5 4.5 0 0 0 11 4.97v8.05c1.48-.73 2.5-2.25 2.5-4.02zM11 .23v2.06c2.89.86 5 3.54 5 6.71s-2.11 5.85-5 6.71v2.06c4.01-.91 7-4.49 7-8.77 0-4.28-2.99-7.86-7-8.77z" id="a"/></defs><g transform="translate(3 3)" fill="none" fill-rule="evenodd"><mask id="b" fill="#fff"><use xlink:href="#a"/></mask><use fill="#000" fill-rule="nonzero" xlink:href="#a"/><g mask="url(#b)" fill="#000"><path d="M-3-3h24v24H-3z"/></g></g></svg>